<svg width="1440" height="732" viewBox="0 0 1440 732" fill="none" xmlns="http://www.w3.org/2000/svg">
<path d="M-230.766 285.864L189.734 203.864L837.734 345.864L1485.23 285.864V612.012H-230.766L-230.766 285.864Z" fill="rgba(0, 154, 68, 0.375)"/>
<path d="M1485.23 619.62L1064.73 731.62L416.734 601.62L-230.766 727.62V401.473H1485.23L1485.23 619.62Z" fill="rgba(200, 16, 46, 0.675)"/>
<g filter="url(#filter0_f)">
<path d="M1251.96 532.235C1234.35 531.628 1217.89 523.327 1206.93 509.525L1205.58 507.819C1194.97 494.451 1191.08 476.952 1195.03 460.347C1199.08 443.309 1210.92 429.173 1226.98 422.191L1227.87 421.803C1243.57 414.98 1261.49 415.491 1276.77 423.199L1279.87 424.764C1295.15 432.471 1306.21 446.576 1310.06 463.254L1310.27 464.203C1314.21 481.269 1309.88 499.191 1298.58 512.577C1287.58 525.624 1271.19 532.897 1254.14 532.31L1251.96 532.235Z" stroke="#C4C4C4" stroke-width="10"/>
<path d="M1251.96 532.235C1234.35 531.628 1217.89 523.327 1206.93 509.525L1205.58 507.819C1194.97 494.451 1191.08 476.952 1195.03 460.347C1199.08 443.309 1210.92 429.173 1226.98 422.191L1227.87 421.803C1243.57 414.98 1261.49 415.491 1276.77 423.199L1279.87 424.764C1295.15 432.471 1306.21 446.576 1310.06 463.254L1310.27 464.203C1314.21 481.269 1309.88 499.191 1298.58 512.577C1287.58 525.624 1271.19 532.897 1254.14 532.31L1251.96 532.235Z" stroke="#3C50E0" stroke-width="10"/>
</g>
<path d="M1380.85 608.242C1375.17 608.138 1369.84 605.453 1366.38 600.947C1362.92 596.441 1361.7 590.605 1363.07 585.091C1364.43 579.577 1368.24 574.984 1373.4 572.614C1378.56 570.243 1384.52 570.352 1389.59 572.911C1394.67 575.469 1398.3 580.198 1399.46 585.758C1400.62 591.319 1399.19 597.106 1395.57 601.482C1391.94 605.858 1386.53 608.346 1380.85 608.242Z" fill="#C4C4C4"/>
<path d="M1380.85 608.242C1375.17 608.138 1369.84 605.453 1366.38 600.947C1362.92 596.441 1361.7 590.605 1363.07 585.091C1364.43 579.577 1368.24 574.984 1373.4 572.614C1378.56 570.243 1384.52 570.352 1389.59 572.911C1394.67 575.469 1398.3 580.198 1399.46 585.758C1400.62 591.319 1399.19 597.106 1395.57 601.482C1391.94 605.858 1386.53 608.346 1380.85 608.242Z" fill="#3C50E0"/>
<g opacity="0.3">
<path d="M1285.69 645.934C1282.19 645.87 1278.9 644.211 1276.76 641.428C1274.62 638.644 1273.87 635.039 1274.71 631.633C1275.56 628.226 1277.9 625.389 1281.09 623.925C1284.28 622.46 1287.97 622.528 1291.1 624.108C1294.23 625.689 1296.48 628.61 1297.19 632.045C1297.91 635.48 1297.03 639.055 1294.79 641.758C1292.55 644.461 1289.2 645.998 1285.69 645.934Z" fill="#C4C4C4"/>
<path d="M1285.69 645.934C1282.19 645.87 1278.9 644.211 1276.76 641.428C1274.62 638.644 1273.87 635.039 1274.71 631.633C1275.56 628.226 1277.9 625.389 1281.09 623.925C1284.28 622.46 1287.97 622.528 1291.1 624.108C1294.23 625.689 1296.48 628.61 1297.19 632.045C1297.91 635.48 1297.03 639.055 1294.79 641.758C1292.55 644.461 1289.2 645.998 1285.69 645.934Z" fill="#3C50E0"/>
</g>
<g opacity="0.3">
<path d="M1361.78 685.553C1360 685.52 1358.33 684.677 1357.24 683.263C1356.16 681.848 1355.77 680.016 1356.2 678.285C1356.63 676.554 1357.82 675.113 1359.45 674.369C1361.07 673.625 1362.94 673.659 1364.53 674.462C1366.12 675.265 1367.26 676.749 1367.63 678.495C1367.99 680.24 1367.54 682.057 1366.4 683.431C1365.27 684.804 1363.57 685.585 1361.78 685.553Z" fill="#C4C4C4"/>
<path d="M1361.78 685.553C1360 685.52 1358.33 684.677 1357.24 683.263C1356.16 681.848 1355.77 680.016 1356.2 678.285C1356.63 676.554 1357.82 675.113 1359.45 674.369C1361.07 673.625 1362.94 673.659 1364.53 674.462C1366.12 675.265 1367.26 676.749 1367.63 678.495C1367.99 680.24 1367.54 682.057 1366.4 683.431C1365.27 684.804 1363.57 685.585 1361.78 685.553Z" fill="#3C50E0"/>
</g>
<g filter="url(#filter1_d)">
<path d="M153.736 302.432C148.777 304.863 142.786 302.814 140.355 297.855L113.961 244.011C111.53 239.051 113.58 233.061 118.539 230.63L172.383 204.236C177.342 201.805 183.333 203.854 185.764 208.813L212.158 262.657C214.589 267.616 212.539 273.607 207.58 276.038L153.736 302.432ZM139.651 238.362C134.696 240.799 132.654 246.792 135.091 251.748L147.383 276.742C149.821 281.698 155.814 283.74 160.77 281.302L185.764 269.01C190.72 266.573 192.761 260.58 190.324 255.624L178.032 230.63C175.595 225.674 169.601 223.632 164.645 226.07L139.651 238.362Z" fill="#916AFF"/>
</g>
<defs>
<filter id="filter0_f" x="1138.1" y="361.469" width="229.057" height="226.872" filterUnits="userSpaceOnUse" color-interpolation-filters="sRGB">
<feFlood flood-opacity="0" result="BackgroundImageFix"/>
<feBlend mode="normal" in="SourceGraphic" in2="BackgroundImageFix" result="shape"/>
<feGaussianBlur stdDeviation="14.5" result="effect1_foregroundBlur"/>
</filter>
<filter id="filter1_d" x="65.938" y="156.213" width="224.243" height="224.243" filterUnits="userSpaceOnUse" color-interpolation-filters="sRGB">
<feFlood flood-opacity="0" result="BackgroundImageFix"/>
<feColorMatrix in="SourceAlpha" type="matrix" values="0 0 0 0 0 0 0 0 0 0 0 0 0 0 0 0 0 0 127 0"/>
<feOffset dx="15" dy="15"/>
<feGaussianBlur stdDeviation="31"/>
<feColorMatrix type="matrix" values="0 0 0 0 0.223299 0 0 0 0 0.178229 0 0 0 0 0.245833 0 0 0 0.25 0"/>
<feBlend mode="normal" in2="BackgroundImageFix" result="effect1_dropShadow"/>
<feBlend mode="normal" in="SourceGraphic" in2="effect1_dropShadow" result="shape"/>
</filter>
</defs>
</svg>
